<?xml version="1.0" encoding="utf-8"?>
<!-- Generator: Adobe Illustrator 27.2.0, SVG Export Plug-In . SVG Version: 6.00 Build 0)  -->
<svg version="1.1" id="Layer_1" xmlns="http://www.w3.org/2000/svg" xmlns:xlink="http://www.w3.org/1999/xlink" x="0px" y="0px"
	 viewBox="0 0 478.4 436.1" style="enable-background:new 0 0 478.4 436.1;" xml:space="preserve">
<style type="text/css">
	.st0{fill:#F7B3CA;}
	.st1{fill:#EC407A;}
	.st2{fill:#76203D;}
	.st3{fill:#B1305C;}
	.st4{fill:#F48CAF;}
</style>
<path class="st0" d="M381.3,56.2l-2.6-4.6c-13.4-23.3-38.2-37.6-65.1-37.6H164.8c-26.9,0-51.7,14.3-65.1,37.6l-2.6,4.6H381.3
	L381.3,56.2z"/>
<path class="st1" d="M19.1,241.3h440.2c4.9-15.1,4.9-31.4,0-46.5H19.1C14.2,209.9,14.2,226.2,19.1,241.3z"/>
<path class="st2" d="M97.1,379.9l2.6,4.6c13.4,23.3,38.2,37.6,65.1,37.6h148.8c26.9,0,51.7-14.3,65.1-37.6l2.6-4.6H97.1z"/>
<polygon class="st3" points="407.9,333.9 434.8,287.4 43.6,287.4 70.5,333.9 "/>
<polygon class="st4" points="70.5,102.2 43.6,148.8 434.8,148.8 407.9,102.2 "/>
</svg>
