<?xml version="1.0" encoding="UTF-8"?>
<svg width="150" height="52" viewBox="0 0 150 52" fill="none" xmlns="http://www.w3.org/2000/svg">
	<defs>
		<style>.cls-1{fill:#e73367;}.cls-2{fill:#c02a55;}.cls-3{fill:#141313;}</style>
	</defs>
	<g>
		<path class="cls-3" d="m7.46,19.51c-.86-.06-1.29-.47-1.29-1.29v-5.3c-.06-1.07-.64-1.6-1.79-1.6s-1.73.53-1.75,1.6v6.58H0v-6.06c0-2.94,1.48-4.4,4.42-4.4s4.38,1.46,4.36,4.4v6.06h-1.32Z"/>
		<path class="cls-3" d="m19.24,14.41c0,3.55-1.58,5.34-4.69,5.34s-4.68-1.79-4.68-5.34,1.56-5.36,4.68-5.36,4.69,1.77,4.69,5.36Zm-6.74,0c.02,2.01.7,3.02,2.03,3.02s1.99-1.05,2.01-3.1c0-2.01-.66-3-1.99-3s-2.05,1.03-2.05,3.08Z"/>
		<path class="cls-3" d="m29.92,9.21l-3.64,10.31h-2.75l-3.62-10.31h2.86l2.08,7.23,1.79-6.31c.19-.6.62-.92,1.27-.92h2.01Z"/>
		<path class="cls-3" d="m33.17,11.89h-2.59c.31-1.91,1.66-2.84,4.03-2.84,2.84,0,4.29.93,4.34,2.84v3.51c0,2.84-1.71,4.11-4.5,4.31-2.47.19-4.19-.95-4.19-3.23.06-2.47,1.85-3.14,4.46-3.39,1.11-.14,1.68-.47,1.68-1.03-.06-.58-.6-.88-1.68-.88-.92,0-1.42.23-1.56.72Zm3.27,3.39v-.95c-.6.25-1.31.47-2.06.62-1.03.19-1.56.68-1.56,1.44.06.82.49,1.21,1.31,1.21,1.44,0,2.32-.86,2.32-2.32Z"/>
		<path class="cls-3" d="m43.14,11.76h-.35v7.75h-2.59v-10.58c-.1-1.97,1.05-2.75,2.98-2.75.45,0,.86.02,1.25.08v2.14h-.68c-.6,0-.94.25-.99.76v.68h1.67v.6c0,.7-.58,1.31-1.29,1.31Z"/>
		<path class="cls-3" d="m47.81,11.89h-2.59c.31-1.91,1.66-2.84,4.03-2.84,2.84,0,4.29.93,4.34,2.84v3.51c0,2.84-1.71,4.11-4.5,4.31-2.47.19-4.19-.95-4.19-3.23.06-2.47,1.85-3.14,4.46-3.39,1.11-.14,1.68-.47,1.68-1.03-.06-.58-.6-.88-1.68-.88-.91,0-1.42.23-1.56.72Zm3.27,3.39v-.95c-.6.25-1.31.47-2.06.62-1.03.19-1.56.68-1.56,1.44.06.82.49,1.21,1.31,1.21,1.44,0,2.32-.86,2.32-2.32Z"/>
		<path class="cls-3" d="m54.84,14.19c.08-3.33,1.85-4.99,5.3-4.99h.37v2.69h-.88c-1.44,0-2.16.76-2.16,2.26v5.36h-2.63v-5.32Z"/>
		<path class="cls-3" d="m64.35,12.93v6.58h-2.63v-6.06c0-2.94,1.48-4.4,4.42-4.4,1.32,0,2.34.29,3.08.88.74-.57,1.75-.84,3.08-.84,2.94,0,4.4,1.46,4.38,4.4v6.06h-1.34c-.86-.06-1.29-.47-1.29-1.29v-5.3c-.06-1.07-.64-1.6-1.79-1.6s-1.73.53-1.75,1.6v6.55h-2.61v-6.58c-.06-1.07-.64-1.6-1.79-1.6s-1.73.53-1.75,1.6Z"/>
		<path class="cls-3" d="m82.68,17.64c1.09,0,1.64-.31,1.64-.97,0-.53-.9-.95-2.67-1.27-2.28-.41-3.45-1.42-3.47-3.04,0-2.22,1.75-3.27,4.11-3.31,1.32,0,2.38.29,3.16.88.76.6,1.17,1.44,1.23,2.51h-1.64c-.6-.02-.99-.23-1.15-.64-.18-.45-.7-.7-1.56-.7-1.01,0-1.52.27-1.52.8s.66.94,2.01,1.19c1.75.35,2.9.8,3.47,1.32.49.51.72,1.13.72,1.83,0,2.53-1.99,3.47-4.71,3.47-1.44,0-2.53-.31-3.23-.92-.78-.58-1.17-1.48-1.17-2.67h2.65c.06,1.13.88,1.52,2.14,1.52Z"/>
	</g>
	<rect class="cls-1" x="12" y="4" width="22" height="3" rx="1.5" ry="1.5"/>
	<rect class="cls-2" x="15" y="0" width="17" height="3" rx="1.32" ry="1.32"/>
	<rect class="cls-2" x="15" y="25" width="17" height="3" rx="1.32" ry="1.32"/>
	<rect class="cls-1" x="12" y="21" width="22" height="3" rx="1.5" ry="1.5"/>
</svg>