<?xml version="1.0" encoding="utf-8"?>
<!-- Generator: Adobe Illustrator 27.2.0, SVG Export Plug-In . SVG Version: 6.00 Build 0)  -->
<svg version="1.1" id="Layer_1" xmlns="http://www.w3.org/2000/svg" xmlns:xlink="http://www.w3.org/1999/xlink" x="0px" y="0px"
	 viewBox="0 0 150 52" style="enable-background:new 0 0 150 52;" xml:space="preserve">
<style type="text/css">
	.st0{fill:#141313;}
	.st1{fill:#F7B3CA;}
	.st2{fill:#EC407A;}
	.st3{fill:#76203D;}
	.st4{fill:#B1305C;}
	.st5{fill:#F48CAF;}
</style>
<g>
	<path class="st0" d="M17.9,34.7c-1.4-0.1-2-0.7-2-2v-8.4c-0.1-1.7-1-2.5-2.8-2.5s-2.7,0.8-2.8,2.5v10.4H6.1v-9.6c0-4.7,2.3-7,7-7
		s6.9,2.3,6.9,7v9.6L17.9,34.7L17.9,34.7z"/>
	<path class="st0" d="M53.5,18.4l-5.8,16.3h-4.4l-5.7-16.3h4.5l3.3,11.5l2.8-10c0.3-1,1-1.5,2-1.5C50.3,18.4,53.5,18.4,53.5,18.4z"
		/>
	<path class="st0" d="M58.6,22.7h-4.1c0.5-3,2.6-4.5,6.4-4.5c4.5,0,6.8,1.5,6.9,4.5v5.6c0,4.5-2.7,6.5-7.1,6.8
		c-3.9,0.3-6.6-1.5-6.6-5.1c0.1-3.9,2.9-5,7.1-5.4c1.8-0.2,2.7-0.7,2.7-1.6c-0.1-0.9-1-1.4-2.7-1.4C59.6,21.5,58.8,21.9,58.6,22.7
		L58.6,22.7z M63.8,28v-1.5c-1,0.4-2.1,0.7-3.3,1c-1.6,0.3-2.5,1.1-2.5,2.3c0.1,1.3,0.8,1.9,2.1,1.9C62.4,31.7,63.8,30.3,63.8,28
		L63.8,28z"/>
	<path class="st0" d="M74.4,22.5h-0.6v12.3h-4.1V18c-0.2-3.1,1.7-4.4,4.7-4.4c0.7,0,1.4,0,2,0.1v3.4h-1.1c-1,0-1.5,0.4-1.6,1.2v1.1
		h2.6v1C76.5,21.5,75.5,22.4,74.4,22.5L74.4,22.5z"/>
	<path class="st0" d="M81.8,22.7h-4.1c0.5-3,2.6-4.5,6.4-4.5c4.5,0,6.8,1.5,6.9,4.5v5.6c0,4.5-2.7,6.5-7.1,6.8
		c-3.9,0.3-6.6-1.5-6.6-5.1c0.1-3.9,2.9-5,7.1-5.4c1.8-0.2,2.7-0.7,2.7-1.6c-0.1-0.9-1-1.4-2.7-1.4C82.8,21.5,82,21.9,81.8,22.7
		L81.8,22.7z M87,28v-1.5c-1,0.4-2.1,0.7-3.3,1c-1.6,0.3-2.5,1.1-2.5,2.3c0.1,1.3,0.8,1.9,2.1,1.9C85.6,31.7,87,30.3,87,28L87,28z"
		/>
	<path class="st0" d="M93,26.3c0.1-5.3,2.9-7.9,8.4-7.9h0.6v4.3h-1.4c-2.3,0-3.4,1.2-3.4,3.6v8.5H93C93,34.7,93,26.3,93,26.3z"/>
	<path class="st0" d="M108,24.3v10.4h-4.2v-9.6c0-4.7,2.3-7,7-7c2.1,0,3.7,0.5,4.9,1.4c1.2-0.9,2.8-1.3,4.9-1.3c4.7,0,7,2.3,6.9,7
		v9.6h-2.1c-1.4-0.1-2-0.7-2-2v-8.4c-0.1-1.7-1-2.5-2.8-2.5c-1.8,0-2.7,0.8-2.8,2.5v10.4h-4.1V24.3c-0.1-1.7-1-2.5-2.8-2.5
		S108.1,22.6,108,24.3L108,24.3z"/>
	<path class="st0" d="M137.1,31.8c1.7,0,2.6-0.5,2.6-1.5c0-0.8-1.4-1.5-4.2-2c-3.6-0.6-5.5-2.2-5.5-4.8c0-3.5,2.8-5.2,6.5-5.2
		c2.1,0,3.8,0.5,5,1.4c1.2,1,1.9,2.3,1.9,4h-2.6c-1,0-1.6-0.4-1.8-1c-0.3-0.7-1.1-1.1-2.5-1.1c-1.6,0-2.4,0.4-2.4,1.3
		c0,0.8,1,1.5,3.2,1.9c2.8,0.6,4.6,1.3,5.5,2.1c0.8,0.8,1.1,1.8,1.1,2.9c0,4-3.2,5.5-7.5,5.5c-2.3,0-4-0.5-5.1-1.5
		c-1.2-0.9-1.9-2.3-1.9-4.2h4.2C133.8,31.1,135.1,31.8,137.1,31.8L137.1,31.8z"/>
</g>
<g>
	<path class="st1" d="M35.2,20.4l-0.1-0.2c-0.5-0.9-1.5-1.4-2.5-1.4h-5.7c-1,0-2,0.5-2.5,1.4l-0.1,0.2H35.2z"/>
	<path class="st2" d="M21.3,27.5h16.9c0.2-0.6,0.2-1.2,0-1.8H21.3C21.1,26.3,21.1,26.9,21.3,27.5z"/>
	<path class="st3" d="M24.3,32.8l0.1,0.2c0.5,0.9,1.5,1.4,2.5,1.4h5.7c1,0,2-0.5,2.5-1.4l0.1-0.2H24.3z"/>
	<polygon class="st4" points="36.2,31.1 37.2,29.3 22.3,29.3 23.3,31.1 	"/>
	<polygon class="st5" points="23.3,22.2 22.3,24 37.2,24 36.2,22.2 	"/>
</g>
</svg>
